<svg xmlns="http://www.w3.org/2000/svg" viewBox="0 0 100 80" width="100" height="80">
  <defs>
    <linearGradient id="bowl" x1="0" y1="0" x2="1" y2="0">
      <stop offset="0" stop-color="#c9c3b6"/>
      <stop offset="0.35" stop-color="#f7f4ec"/>
      <stop offset="1" stop-color="#b3ac9c"/>
    </linearGradient>
    <radialGradient id="panko" cx="0.5" cy="0.4" r="0.7">
      <stop offset="0" stop-color="#f0c872"/>
      <stop offset="1" stop-color="#c98f38"/>
    </radialGradient>
    <filter id="soft" x="-20%" y="-60%" width="140%" height="220%"><feGaussianBlur stdDeviation="2.4"/></filter>
  </defs>
  <ellipse cx="50" cy="70" rx="38" ry="6" fill="#000" opacity="0.45" filter="url(#soft)"/>
  <path d="M8,34 Q10,66 50,68 Q90,66 92,34 Z" fill="url(#bowl)" stroke="#8f887a" stroke-width="2"/>
  <ellipse cx="50" cy="34" rx="42" ry="14" fill="#efebe0" stroke="#8f887a" stroke-width="2"/>
  <ellipse cx="50" cy="35" rx="35" ry="10.5" fill="url(#panko)"/>
  <path d="M24,34 C32,20 68,20 76,34 C66,39 34,39 24,34 Z" fill="#dba44a"/>
  <g fill="#f7dc9b"><circle cx="34" cy="30" r="1.8"/><circle cx="44" cy="27" r="1.5"/><circle cx="55" cy="28" r="1.9"/><circle cx="66" cy="31" r="1.6"/><circle cx="40" cy="35" r="1.4"/><circle cx="52" cy="34" r="1.7"/><circle cx="62" cy="36" r="1.4"/><circle cx="30" cy="35" r="1.2"/></g>
  <g fill="#a86f1d"><circle cx="38" cy="31" r="1.1"/><circle cx="49" cy="30" r="1"/><circle cx="60" cy="33" r="1.1"/><circle cx="46" cy="37" r="1"/><circle cx="70" cy="34" r="0.9"/></g>
</svg>
