<svg xmlns="http://www.w3.org/2000/svg" viewBox="0 0 100 100" width="100" height="100">
  <defs>
    <linearGradient id="rim" x1="0" y1="0" x2="1" y2="1">
      <stop offset="0" stop-color="#eef1f4"/>
      <stop offset="1" stop-color="#aab3bc"/>
    </linearGradient>
    <radialGradient id="flour" cx="0.45" cy="0.4" r="0.8">
      <stop offset="0" stop-color="#ffffff"/>
      <stop offset="1" stop-color="#e7e3d8"/>
    </radialGradient>
    <filter id="shadow" x="-10%" y="-10%" width="120%" height="130%">
      <feDropShadow dx="0" dy="2.5" stdDeviation="2" flood-color="#000" flood-opacity="0.5"/>
    </filter>
  </defs>
  <!-- Contenedor cuadrado -->
  <g filter="url(#shadow)">
    <rect x="4" y="4" width="92" height="92" rx="12" fill="url(#rim)" stroke="#7d8791" stroke-width="2.5"/>
  </g>
  <rect x="11" y="11" width="78" height="78" rx="8" fill="#c9d0d7" stroke="#97a2ac" stroke-width="1.5"/>
  <rect x="14" y="14" width="72" height="72" rx="6" fill="url(#flour)"/>
  <!-- Harina: montículo y grano fino -->
  <ellipse cx="46" cy="44" rx="26" ry="19" fill="#ffffff" opacity="0.95"/>
  <ellipse cx="42" cy="38" rx="14" ry="8" fill="#ffffff"/>
  <g fill="#d9d5c8" opacity="0.7"><circle cx="30" cy="62" r="1.2"/><circle cx="58" cy="66" r="1.1"/><circle cx="70" cy="50" r="1.2"/><circle cx="24" cy="46" r="1"/><circle cx="52" cy="74" r="1.2"/><circle cx="66" cy="30" r="1"/></g>
  <path d="M24,70 C38,62 56,62 76,72" fill="none" stroke="#e1ddd0" stroke-width="1.6" opacity="0.8"/>
</svg>
