<svg xmlns="http://www.w3.org/2000/svg" viewBox="0 0 64 64" width="64" height="64">
  <defs></defs>
  <ellipse cx="32" cy="57" rx="22" ry="4.5" fill="#21120e" opacity="0.35"/><path d="M10,46 Q24,38 38,46 Q48,52 56,44" fill="none" stroke="#2b1810" stroke-width="9.5" stroke-linecap="round"/><path d="M10,46 Q24,38 38,46 Q48,52 56,44" fill="none" stroke="#8a4a2a" stroke-width="6.5" stroke-linecap="round"/><path d="M10,34 Q24,26 38,34 Q48,40 56,32" fill="none" stroke="#2b1810" stroke-width="9.5" stroke-linecap="round"/><path d="M10,34 Q24,26 38,34 Q48,40 56,32" fill="none" stroke="#8a4a2a" stroke-width="6.5" stroke-linecap="round"/><path d="M12,22 Q26,14 40,22 Q48,26 54,20" fill="none" stroke="#2b1810" stroke-width="9.5" stroke-linecap="round"/><path d="M12,22 Q26,14 40,22 Q48,26 54,20" fill="none" stroke="#8a4a2a" stroke-width="6.5" stroke-linecap="round"/>
</svg>
