<svg xmlns="http://www.w3.org/2000/svg" viewBox="0 0 64 64" width="64" height="64">
  <defs><linearGradient id="g0" x1="0" y1="0" x2="1" y2="0"><stop offset="0" stop-color="#fff8e6"/><stop offset="0.55" stop-color="#fff3d6"/><stop offset="1" stop-color="#b8af9a"/></linearGradient></defs>
  <ellipse cx="32" cy="57" rx="14" ry="4.5" fill="#21120e" opacity="0.35"/><path d="M23,26 Q23,20 28,18 L36,18 Q41,20 41,26 L44,51 Q44,57 38,57 L26,57 Q20,57 20,51 Z" fill="url(#g0)" stroke="#2b1810" stroke-width="2.6" stroke-linejoin="round" stroke-linecap="round" /><path d="M28,18 L30,8 L34,8 L36,18 Z" fill="#c62828" stroke="#2b1810" stroke-width="2.2" stroke-linejoin="round" stroke-linecap="round" /><path d="M30,8 L32,3 L34,8 Z" fill="#c62828" stroke="#2b1810" stroke-width="1.8" stroke-linejoin="round" stroke-linecap="round" /><rect x="23" y="34" width="18" height="14" rx="3" fill="#fff8e1" stroke="#2b1810" stroke-width="1.8" stroke-linejoin="round" stroke-linecap="round" /><rect x="25" y="36" width="14" height="3" fill="#c62828"/><circle cx="32" cy="43.5" r="2.4" fill="#c62828"/><path d="M25,28 Q23,40 25,52" fill="none" stroke="#ffffff" stroke-opacity="0.5" stroke-width="2.2" stroke-linecap="round"/>
</svg>
