<svg xmlns="http://www.w3.org/2000/svg" viewBox="0 0 64 64" width="64" height="64">
  <defs><linearGradient id="g0" x1="0" y1="0" x2="1" y2="0"><stop offset="0" stop-color="#f8fbf1"/><stop offset="0.55" stop-color="#f4f8e8"/><stop offset="1" stop-color="#b0b3a7"/></linearGradient><linearGradient id="g1" x1="0" y1="0" x2="0" y2="1"><stop offset="0" stop-color="#7db797"/><stop offset="0.55" stop-color="#2e8b57"/><stop offset="1" stop-color="#21643f"/></linearGradient><linearGradient id="g2" x1="0" y1="0" x2="0" y2="1"><stop offset="0" stop-color="#7aad91"/><stop offset="0.55" stop-color="#287a4d"/><stop offset="1" stop-color="#1d5837"/></linearGradient></defs>
  <ellipse cx="32" cy="57" rx="22" ry="4.5" fill="#21120e" opacity="0.35"/><path d="M23.950000000000003,34 L23.950000000000003,56 L40.05,56 L40.05,34 Z" fill="url(#g0)" stroke="#2b1810" stroke-width="2.3" stroke-linejoin="round" stroke-linecap="round" /><path d="M23.950000000000003,34 Q19.950000000000003,18 24,4 Q32,16 32,34 Z" fill="url(#g1)" stroke="#2b1810" stroke-width="2.2" stroke-linejoin="round" stroke-linecap="round" /><path d="M40.05,34 Q44.05,18 40,4 Q32,16 32,34 Z" fill="url(#g2)" stroke="#2b1810" stroke-width="2.2" stroke-linejoin="round" stroke-linecap="round" /><path d="M32,34 L32,56" stroke="#cfd8b0" stroke-width="1.4"/><path d="M28,56 L26,61 M32,56 L32,62 M36,56 L38,61" stroke="#2b1810" stroke-width="1.8" stroke-linecap="round"/>
</svg>
