<svg xmlns="http://www.w3.org/2000/svg" viewBox="0 0 64 64" width="64" height="64">
  <defs>
    <linearGradient id="sc" x1="0" y1="0" x2="1" y2="0"><stop offset="0" stop-color="#8a2a07"/><stop offset="0.35" stop-color="#d9531e"/><stop offset="0.7" stop-color="#d9531e"/><stop offset="1" stop-color="#8a2a07"/></linearGradient>
  </defs>
  <ellipse cx="32" cy="58" rx="19" ry="3.6" fill="#21120e" opacity="0.35"/>
  <path d="M13,9 L16,6 L19,9 L22,6 L25,9 L28,6 L31,9 L34,6 L37,9 L40,6 L43,9 L46,6 L49,9 L51,11 L51,52 L49,54 L46,57 L43,54 L40,57 L37,54 L34,57 L31,54 L28,57 L25,54 L22,57 L19,54 L16,57 L13,54 L11,52 L11,11 Z" fill="url(#sc)" stroke="#2b1810" stroke-width="2.4" stroke-linejoin="round"/>
  <rect x="16" y="14" width="32" height="30" rx="3" fill="#fff8e1" stroke="#2b1810" stroke-width="1.6"/>
  <path d="M32,17 C29,21.5 27.5,24 27.5,26.4 a4.5,4.5 0 0 0 9,0 C36.5,24 35,21.5 32,17 Z" fill="#d9531e" stroke="#2b1810" stroke-width="1.2"/>
  <text x="32" y="36.5" font-size="5.2" font-weight="900" text-anchor="middle" fill="#3b2a1a" font-family="Arial, sans-serif">SALSA</text>
  <text x="32" y="42" font-size="4.6" font-weight="900" text-anchor="middle" fill="#3b2a1a" font-family="Arial, sans-serif">OMURAISU</text>
  <path d="M15,15 L15,50" stroke="#ffffff" stroke-opacity="0.35" stroke-width="2" stroke-linecap="round"/>
</svg>
